#!OML:ASF Y:\EmotionMaleHayes\Project 1\Capture day 1\Session 1\Male1.ASF
:FULLY-SPECIFIED
:DEGREES
369
root 46.1859 17.3394 -1.73617 394.567 85.0036 397.466
lowerback 8.65056 1.45716 -5.2115
upperback 2.14309 1.52224 -0.591997
thorax -2.7395 0.812139 2.14681
lowerneck -23.4141 1.36986 0.573982
upperneck 14.5789 1.81462 -0.712244
head 8.36284 0.810497 -0.0863218
rclavicle 1.76421e-015 1.02374e-014
rhumerus -36.0405 2.62305 -86.7879
rradius 33.282
rwrist -2.59869
rhand -9.63126 -30.9296
rfingers 7.12502
rthumb 16.3387 -60.2613
lclavicle 1.76421e-015 1.02374e-014
lhumerus -33.9349 -6.53774 88.7186
lradius 21.0597
lwrist -3.69195
lhand -20.5298 -24.5173
lfingers 7.12502
lthumb 5.82832 5.38252
rfemur 6.36447 -1.47906 11.8183
rtibia 5.33211
rfoot -10.38 3.43629
rtoes 8.56692
lfemur 9.85049 2.38892 -19.1098
ltibia 1.77633
lfoot -11.6141 9.50086
ltoes 5.48957
370
root 46.1871 17.3404 -1.73924 397.23 84.8094 400.039
lowerback 8.57428 1.4513 -5.54757
upperback 2.13403 1.4885 -0.661371
thorax -2.70978 0.796961 2.26842
lowerneck -23.5937 1.42742 0.725372
upperneck 14.8559 1.88722 -0.920187
head 8.49178 0.828736 -0.169526
rclavicle 1.07157e-014 -2.38542e-015
rhumerus -35.8965 2.61649 -86.7861
rradius 33.3795
rwrist -2.66504
rhand -9.56898 -30.9199
rfingers 7.12502
rthumb 16.3987 -60.2467
lclavicle 1.07157e-014 -2.38542e-015
lhumerus -34.0011 -6.30755 88.5848
lradius 20.8212
lwrist -3.91155
lhand -20.4902 -24.5778
lfingers 7.12502
lthumb 5.8666 5.321
rfemur 6.26047 -1.59002 11.4087
rtibia 5.19022
rfoot -10.1664 3.44136
rtoes 7.73316
lfemur 9.72173 2.43571 -19.4969
ltibia 1.81962
lfoot -11.6876 9.49201
ltoes 5.76509
371
root 46.1935 17.3416 -1.73952 391.562 85.0316 394.317
lowerback 8.49024 1.45497 -5.00615
upperback 2.1382 1.54703 -0.519059
thorax -2.65474 0.820707 2.10805
lowerneck -23.7358 1.40413 0.807615
upperneck 15.1223 1.85679 -1.0468
head 8.60894 0.803478 -0.228737
rclavicle -8.63471e-016 -1.33683e-014
rhumerus -35.8097 2.60344 -86.8072
rradius 33.5075
rwrist -2.84122
rhand -9.57186 -31.0052
rfingers 7.12502
rthumb 16.3959 -60.3322
lclavicle -8.63471e-016 -1.33683e-014
lhumerus -34.1619 -6.05668 88.3978
lradius 20.7703
lwrist -4.28393
lhand -20.3339 -24.4947
lfingers 7.12502
lthumb 6.01749 5.39986
rfemur 6.19041 -1.38655 12.1342
rtibia 5.36733
rfoot -10.2553 3.44168
rtoes 9.24906
lfemur 9.76757 2.41406 -18.8113
ltibia 1.75113
lfoot -11.7921 9.52402
ltoes 6.10286
372
root 46.1921 17.35 -1.74244 394.547 84.8494 397.04
lowerback 8.27486 1.48728 -5.27533
upperback 2.05056 1.57285 -0.623146
thorax -2.63189 0.835107 2.15164
lowerneck -23.7882 1.32853 0.8626
upperneck 15.2932 1.7593 -1.1506
head 8.67725 0.748422 -0.286204
rclavicle 5.11249e-015 7.95139e-015
rhumerus -35.7977 2.58543 -86.8307
rradius 33.7392
rwrist -3.18014
rhand -9.8862 -31.0197
rfingers 7.12502
rthumb 16.0932 -60.3715
lclavicle 5.11249e-015 7.95139e-015
lhumerus -34.3471 -5.94438 88.2382
lradius 20.8407
lwrist -4.62092
lhand -20.1622 -24.402
lfingers 7.12502
lthumb 6.18319 5.48779
rfemur 5.79211 -1.5025 11.735
rtibia 5.39158
rfoot -10.1774 3.37238
rtoes 7.73759
lfemur 9.40359 2.50683 -19.1838
ltibia 1.86837
lfoot -11.9578 9.42153
ltoes 6.8842
373
root 46.1984 17.3448 -1.7443 394.575 84.7493 397.208
lowerback 8.34213 1.53797 -5.33243
upperback 2.12059 1.63534 -0.643334
thorax -2.60203 0.8656 2.15533
lowerneck -23.7696 1.30375 0.896967
upperneck 15.3178 1.72505 -1.20021
head 8.68313 0.728828 -0.313616
rclavicle 5.07522e-015 -1.84373e-014
rhumerus -35.7286 2.48806 -86.7846
rradius 33.942
rwrist -3.24953
rhand -9.97898 -30.997
rfingers 7.12502
rthumb 16.0039 -60.3559
lclavicle 5.07522e-015 -1.84373e-014
lhumerus -34.43 -6.00675 88.1864
lradius 20.8051
lwrist -4.76931
lhand -20.14 -24.3705
lfingers 7.12502
lthumb 6.20464 5.51868
rfemur 6.01358 -1.35928 11.6531
rtibia 5.41909
rfoot -10.2691 3.46699
rtoes 8.76069
lfemur 9.63983 2.546 -19.2584
ltibia 1.78605
lfoot -12.0946 9.44808
ltoes 8.04523
374
root 46.2024 17.3433 -1.74545 394.629 84.7195 397.312
lowerback 8.37978 1.55381 -5.36926
upperback 2.13782 1.65216 -0.639626
thorax -2.60732 0.874245 2.17732
lowerneck -23.6568 1.3473 0.916485
upperneck 15.2739 1.78535 -1.23441
head 8.65029 0.755197 -0.320562
rclavicle -5.78339e-015 -1.61513e-014
rhumerus -35.6435 2.25053 -86.6642
rradius 34.0489
rwrist -2.91994
rhand -9.78035 -30.9405
rfingers 7.12502
rthumb 16.1952 -60.284
lclavicle -5.78339e-015 -1.61513e-014
lhumerus -34.5296 -6.17376 88.2099
lradius 20.7609
lwrist -4.7481
lhand -20.2508 -24.2772
lfingers 7.12502
lthumb 6.0977 5.61507
rfemur 6.09538 -1.38481 11.6066
rtibia 5.3204
rfoot -10.1125 3.47689
rtoes 8.58929
lfemur 9.71224 2.57152 -19.2832
ltibia 1.77296
lfoot -12.0099 9.49206
ltoes 8.14478
375
root 46.2054 17.3432 -1.74593 394.742 84.73 397.419
lowerback 8.46565 1.5713 -5.3732
upperback 2.08169 1.66642 -0.633826
thorax -2.71477 0.884354 2.18104
lowerneck -23.6101 1.35573 0.867993
upperneck 15.3114 1.80112 -1.17329
head 8.65445 0.766626 -0.289748
rclavicle -7.78987e-015 -1.09332e-015
rhumerus -35.6501 2.15369 -86.6043
rradius 34.1318
rwrist -2.87013
rhand -9.82932 -30.8864
rfingers 7.12502
rthumb 16.148 -60.2338
lclavicle -7.78987e-015 -1.09332e-015
lhumerus -34.7258 -6.26334 88.1924
lradius 20.8129
lwrist -4.77675
lhand -20.2349 -24.3172
lfingers 7.12502
lthumb 6.11307 5.57457
rfemur 6.10113 -1.39105 11.5889
rtibia 5.39345
rfoot -10.167 3.56494
rtoes 9.73193
lfemur 9.70046 2.61442 -19.2682
ltibia 1.79803
lfoot -11.8432 9.44353
ltoes 7.11594
376
root 46.2081 17.3441 -1.74755 395.569 84.662 398.228
lowerback 8.53061 1.59075 -5.47823
upperback 2.03206 1.67571 -0.661735
thorax -2.8051 0.892341 2.20751
lowerneck -23.7406 1.31825 0.788716
upperneck 15.5855 1.75535 -1.05896
head 8.76845 0.751612 -0.24302
rclavicle -1.19271e-015 -1.49089e-015
rhumerus -35.7005 2.31311 -86.6752
rradius 34.3218
rwrist -3.26731
rhand -10.0277 -30.9202
rfingers 7.12502
rthumb 15.957 -60.2829
lclavicle -1.19271e-015 -1.49089e-015
lhumerus -34.8821 -6.24948 88.0908
lradius 20.8633
lwrist -4.93844
lhand -20.1155 -24.3893
lfingers 7.12502
lthumb 6.22831 5.49911
rfemur 6.05549 -1.49364 11.4301
rtibia 5.30876
rfoot -10.1072 3.55163
rtoes 8.58316
lfemur 9.68484 2.64537 -19.3938
ltibia 1.80251
lfoot -11.8253 9.3976
ltoes 6.27756
377
root 46.2116 17.3464 -1.75054 396.06 84.5656 398.656
lowerback 8.47644 1.59941 -5.57025
upperback 2.0114 1.68081 -0.698568
thorax -2.79825 0.895529 2.2212
lowerneck -23.8627 1.25291 0.648152
upperneck 15.8242 1.6554 -0.776297
head 8.86655 0.727018 -0.136185
rclavicle -2.28602e-015 -8.24956e-015
rhumerus -35.6905 2.43905 -86.7793
rradius 34.5281
rwrist -3.61631
rhand -10.1413 -30.987
rfingers 7.12502
rthumb 15.8476 -60.3585
lclavicle -2.28602e-015 -8.24956e-015
lhumerus -35.0196 -6.38995 88.0465
lradius 21.004
lwrist -4.87257
lhand -20.1345 -24.3334
lfingers 7.12502
lthumb 6.20996 5.55561
rfemur 5.97981 -1.47089 11.2996
rtibia 5.46191
rfoot -10.2654 3.69923
rtoes 9.63271
lfemur 9.64471 2.5984 -19.5458
ltibia 1.77243
lfoot -11.9442 9.45201
ltoes 6.2886
378
root 46.217 17.3491 -1.75348 393.892 84.6165 396.379
lowerback 8.37248 1.62002 -5.35347
upperback 1.99531 1.7328 -0.646793
thorax -2.75724 0.918564 2.15004
lowerneck -23.8491 1.23016 0.591439
upperneck 15.8763 1.62909 -0.705419
head 8.88092 0.719192 -0.106297
rclavicle -9.27455e-015 1.63997e-015
rhumerus -35.6556 2.41944 -86.7873
rradius 34.7285
rwrist -3.75078
rhand -10.2324 -31.1356
rfingers 7.12502
rthumb 15.7598 -60.5139
lclavicle -9.27455e-015 1.63997e-015
lhumerus -35.1219 -6.59284 88.0803
lradius 21.1526
lwrist -4.73294
lhand -20.1852 -24.4109
lfingers 7.12502
lthumb 6.161 5.47948
rfemur 5.87337 -1.4671 11.5452
rtibia 5.38605
rfoot -10.2156 3.6634
rtoes 8.84047
lfemur 9.61461 2.52919 -19.3403
ltibia 1.68018
lfoot -11.9654 9.59972
ltoes 6.52129
